<svg xmlns="http://www.w3.org/2000/svg" width="1200" height="675" viewBox="0 0 1200 675">
  <defs>
    <linearGradient id="paper" x1="0" x2="1" y1="0" y2="1">
      <stop offset="0" stop-color="#fbf4e9"/>
      <stop offset="0.56" stop-color="#f4efe5"/>
      <stop offset="1" stop-color="#eaf3ef"/>
    </linearGradient>
    <linearGradient id="redline" x1="0" x2="1">
      <stop offset="0" stop-color="#b24a38"/>
      <stop offset="1" stop-color="#273a48"/>
    </linearGradient>
    <pattern id="grid" width="44" height="44" patternUnits="userSpaceOnUse">
      <path d="M 44 0 L 0 0 0 44" fill="none" stroke="#d9d0c2" stroke-width="1" opacity=".55"/>
      <circle cx="0" cy="0" r="1.3" fill="#cbbfae" opacity=".5"/>
    </pattern>
    <filter id="shadow" x="-20%" y="-20%" width="140%" height="140%">
      <feDropShadow dx="0" dy="14" stdDeviation="18" flood-color="#6f6254" flood-opacity=".16"/>
    </filter>
  </defs>
  <rect width="1200" height="675" rx="34" fill="url(#paper)"/>
  <rect width="1200" height="675" rx="34" fill="url(#grid)" opacity=".72"/>
  <circle cx="895" cy="182" r="118" fill="#dcece7" opacity=".68"/>
  <circle cx="978" cy="468" r="168" fill="#f1d7c8" opacity=".34"/>
  <path d="M680 208 C780 156, 893 157, 1026 138" fill="none" stroke="url(#redline)" stroke-width="3"/>
  <path d="M696 430 C810 389, 922 402, 1035 338" fill="none" stroke="url(#redline)" stroke-width="3"/>
  <path d="M735 230 C708 285, 688 346, 674 420" fill="none" stroke="#b24a38" stroke-width="2.4"/>
  <path d="M910 210 C931 272, 963 317, 999 358" fill="none" stroke="#273a48" stroke-width="2.4"/>
  <g filter="url(#shadow)">
    <rect x="706" y="148" width="172" height="92" rx="14" fill="#fffdfa"/>
    <text x="730" y="188" font-family="Songti SC, Noto Serif CJK SC, serif" font-size="28" font-weight="700" fill="#1f252a">封禁</text>
    <text x="730" y="216" font-family="PingFang SC, sans-serif" font-size="17" fill="#69737b">模型突然不可用</text>
  </g>
  <g filter="url(#shadow)">
    <rect x="946" y="92" width="166" height="92" rx="14" fill="#fffdfa"/>
    <text x="970" y="132" font-family="Songti SC, Noto Serif CJK SC, serif" font-size="28" font-weight="700" fill="#1f252a">备份</text>
    <text x="970" y="160" font-family="PingFang SC, sans-serif" font-size="17" fill="#69737b">第二供应商</text>
  </g>
  <g filter="url(#shadow)">
    <rect x="878" y="432" width="184" height="96" rx="14" fill="#fffdfa"/>
    <text x="902" y="472" font-family="Songti SC, Noto Serif CJK SC, serif" font-size="28" font-weight="700" fill="#1f252a">估值</text>
    <text x="902" y="502" font-family="PingFang SC, sans-serif" font-size="17" fill="#69737b">可用性被定价</text>
  </g>
  <g filter="url(#shadow)">
    <rect x="636" y="474" width="168" height="92" rx="14" fill="#fffdfa"/>
    <text x="660" y="514" font-family="Songti SC, Noto Serif CJK SC, serif" font-size="28" font-weight="700" fill="#1f252a">路由</text>
    <text x="660" y="542" font-family="PingFang SC, sans-serif" font-size="17" fill="#69737b">多模型生产常识</text>
  </g>
  <text x="72" y="92" font-family="Avenir Next, PingFang SC, sans-serif" font-size="18" font-weight="700" letter-spacing="7" fill="#b24a38">ANALYSIS · AI SUPPLY CHAIN</text>
  <text x="72" y="168" font-family="Songti SC, Noto Serif CJK SC, serif" font-size="60" font-weight="800" fill="#161a1d">Fable 5 被封禁，</text>
  <text x="72" y="242" font-family="Songti SC, Noto Serif CJK SC, serif" font-size="60" font-weight="800" fill="#161a1d">智谱冲万亿？</text>
  <text x="72" y="318" font-family="PingFang SC, sans-serif" font-size="27" fill="#4e5c63">AI 供应链开始换备胎</text>
  <rect x="72" y="476" width="468" height="74" rx="18" fill="#fffdfa" opacity=".82"/>
  <text x="102" y="519" font-family="PingFang SC, sans-serif" font-size="24" font-weight="600" fill="#273a48">最强模型也可能突然变成不可用基础设施</text>
  <text x="72" y="610" font-family="Avenir Next, PingFang SC, sans-serif" font-size="17" letter-spacing="4" fill="#9a7567">SOURCE-BOUND · WECHAT READY · HUMAN RHYTHM</text>
</svg>
