<svg xmlns="http://www.w3.org/2000/svg" width="980" height="360" viewBox="0 0 980 360">
  <defs>
    <linearGradient id="bg" x1="0" x2="1">
      <stop offset="0" stop-color="#fff8ed"/>
      <stop offset="1" stop-color="#eef7f3"/>
    </linearGradient>
    <filter id="s" x="-20%" y="-20%" width="140%" height="140%">
      <feDropShadow dx="0" dy="10" stdDeviation="14" flood-color="#6d5f53" flood-opacity=".12"/>
    </filter>
  </defs>
  <rect width="980" height="360" rx="28" fill="url(#bg)"/>
  <path d="M110 184 H870" stroke="#cab9a4" stroke-width="3" stroke-linecap="round"/>
  <g font-family="PingFang SC, sans-serif">
    <circle cx="160" cy="184" r="10" fill="#b24a38"/>
    <circle cx="386" cy="184" r="10" fill="#247c8d"/>
    <circle cx="612" cy="184" r="10" fill="#293946"/>
    <circle cx="830" cy="184" r="10" fill="#b24a38"/>
    <g filter="url(#s)">
      <rect x="78" y="70" width="190" height="86" rx="16" fill="#fffdfa"/>
      <text x="104" y="106" font-size="24" font-weight="700" fill="#161a1d">6 月 12 日</text>
      <text x="104" y="134" font-size="17" fill="#667078">Fable / Mythos 进入管制</text>
    </g>
    <g filter="url(#s)">
      <rect x="300" y="206" width="190" height="86" rx="16" fill="#fffdfa"/>
      <text x="326" y="242" font-size="24" font-weight="700" fill="#161a1d">6 月 13 日</text>
      <text x="326" y="270" font-size="17" fill="#667078">GLM-5.2 发布</text>
    </g>
    <g filter="url(#s)">
      <rect x="526" y="70" width="208" height="86" rx="16" fill="#fffdfa"/>
      <text x="552" y="106" font-size="24" font-weight="700" fill="#161a1d">6 月下旬</text>
      <text x="552" y="134" font-size="17" fill="#667078">智谱万亿叙事升温</text>
    </g>
    <g filter="url(#s)">
      <rect x="756" y="206" width="166" height="86" rx="16" fill="#fffdfa"/>
      <text x="782" y="242" font-size="24" font-weight="700" fill="#161a1d">7 月 1 日</text>
      <text x="782" y="270" font-size="17" fill="#667078">Fable 恢复访问</text>
    </g>
  </g>
</svg>
